<svg width="1546" height="410" viewBox="0 0 1546 410" fill="none" xmlns="http://www.w3.org/2000/svg">
<g clip-path="url(#clip0_365_1287)">
<path d="M391.341 346.658C338.276 290.326 346.871 202.86 409.405 160.309C430.764 145.775 454.557 139.444 480.218 139.335C484.475 139.317 486.13 140.888 486.063 145.242C485.869 157.905 486.019 170.573 485.989 183.24C485.973 189.824 485.807 190.016 479.319 190.143C456.032 190.6 436.039 198.538 421.887 217.51C404.52 240.791 401.954 266.428 414.503 292.495C426.932 318.311 448.911 330.901 477.196 331.614C515.307 332.573 546.559 302.896 548.109 264.793C548.637 251.814 548.338 238.799 548.342 225.801C548.359 162.969 548.349 100.137 548.355 37.3051C548.355 35.1395 547.905 32.776 548.628 30.8695C549.233 29.2736 551.225 27.1121 552.64 27.0837C566.634 26.8028 580.635 26.9327 594.634 26.9015C597.809 26.8944 599.191 28.4427 599.098 31.5186C599.078 32.184 599.135 32.8513 599.135 33.5177C599.094 111.015 599.52 188.517 598.858 266.01C598.325 328.485 543.481 381.572 481.061 382.272C446.167 382.663 416.505 371.111 391.341 346.658Z" fill="#0A2750"/>
<path d="M155.854 350.001C155.848 359 155.726 367.501 155.886 375.997C155.963 380.098 154.229 381.606 150.242 381.661C85.7487 382.55 33.9527 335.141 27.1588 275.068C19.5641 207.914 65.2222 149.957 132.122 140.551C200.354 130.957 264.087 182.381 267.912 251.204C269.482 279.45 268.507 307.839 268.64 336.163C268.701 349.162 268.525 362.162 268.702 375.158C268.766 379.816 267.155 381.78 262.327 381.704C249.665 381.506 236.995 381.487 224.334 381.713C219.261 381.803 217.761 379.796 217.779 374.893C217.92 336.898 217.994 298.901 217.8 260.907C217.632 227.995 196.716 200.896 165.627 192.707C126.08 182.29 85.7489 207.445 78.1945 247.24C70.6233 287.124 99.3054 325.768 139.832 330.221C143.468 330.62 147.143 330.85 150.798 330.835C154.459 330.821 155.904 332.49 155.844 336.005C155.767 340.502 155.844 345.002 155.854 350.001Z" fill="#0A2750"/>
<path d="M1249.9 174.9C1273.83 151.989 1301.99 140.272 1334.82 139.481C1396.57 137.993 1452.07 187.787 1455.86 249.355C1457.31 272.928 1456.51 296.644 1456.63 320.295C1456.72 338.454 1456.67 356.615 1456.63 374.775C1456.61 381.042 1456.03 381.606 1449.72 381.629C1437.39 381.676 1425.06 381.68 1412.73 381.628C1406.39 381.601 1405.87 381.08 1405.87 374.793C1405.84 336.64 1405.97 298.487 1405.81 260.335C1405.67 226.127 1382.18 198.012 1348.77 191.597C1309.91 184.139 1271.72 210.713 1265.94 249.226C1259.98 288.995 1288.2 325.939 1327.87 330.22C1331.5 330.612 1335.18 330.814 1338.83 330.843C1342.1 330.87 1343.83 332.112 1343.82 335.537C1343.79 349.364 1343.78 363.193 1343.83 377.02C1343.84 381.399 1340.92 381.622 1337.72 381.633C1311.27 381.728 1287.05 374.531 1265.43 359.191C1204.04 315.627 1196.7 229.659 1249.9 174.9Z" fill="#0A2750"/>
<path d="M753 240.998C769.666 240.996 785.832 241.019 801.998 240.978C807.576 240.963 808.25 240.075 806.572 234.842C803.499 225.258 798.11 217.123 790.609 210.452C764.865 187.556 725.041 184.266 697.831 202.721C673.607 219.15 661.875 250.328 669.059 279.186C676.309 308.313 699.755 328.771 729.715 332.066C733.512 332.483 737.33 332.941 741.139 332.956C744.816 332.97 746.166 334.544 746.145 338.089C746.065 351.421 746.063 364.755 746.14 378.087C746.161 381.703 744.591 383.035 741.032 383.158C710.216 384.219 683.123 374.621 659.545 354.9C636.649 335.749 622.921 311.274 617.954 281.959C612.437 249.394 619.089 219.24 638.2 192.389C663.969 156.184 699.627 138.736 743.988 140.228C802.806 142.206 854.666 192.305 858.991 250.972C859.859 262.747 859.413 274.616 859.63 286.441C859.698 290.158 858.196 291.876 854.293 291.869C814.461 291.805 774.63 291.806 734.798 291.872C730.968 291.878 729.348 290.319 729.365 286.532C729.427 273.033 729.41 259.534 729.376 246.035C729.368 242.526 730.829 240.879 734.503 240.973C740.498 241.127 746.501 241.004 753 240.998Z" fill="#0A2750"/>
<path d="M1010.21 138.845C1068.12 144.157 1117.21 194.041 1119.88 251.651C1121.41 284.747 1120.49 317.957 1120.64 351.116C1120.69 360.115 1120.52 369.117 1120.68 378.113C1120.77 382.628 1118.97 384.281 1114.44 384.207C1101.95 384.003 1089.45 384.166 1076.95 384.129C1070.2 384.109 1069.88 383.8 1069.87 377.066C1069.84 338.401 1069.99 299.736 1069.8 261.072C1069.63 226.637 1046.98 198.253 1014.09 190.706C982.53 183.466 948.807 199.03 935.004 228.286C931.655 235.384 930.759 244.013 930.292 252.029C928.801 277.637 928.007 303.286 927.024 328.923C926.788 335.084 926.535 335.594 920.544 335.621C907.712 335.679 894.878 335.56 882.047 335.669C877.851 335.705 875.865 334.153 876.14 329.78C878.26 296.041 879.951 262.269 882.543 228.566C884.073 208.679 895.106 192.864 908.045 178.698C935.302 148.859 969.329 135.472 1010.21 138.845Z" fill="#0A2750"/>
<path d="M338.148 373.907C338.069 382.821 338.069 382.84 329.91 382.852C318.251 382.869 306.591 382.871 294.932 382.85C287.667 382.837 287.356 382.547 287.355 375.19C287.341 311.897 287.345 248.604 287.345 185.311C287.345 172.32 287.319 159.328 287.365 146.336C287.388 139.97 287.943 139.395 294.163 139.368C306.322 139.316 318.481 139.324 330.64 139.359C337.877 139.38 338.14 139.659 338.141 147.067C338.15 222.519 338.148 297.97 338.148 373.907Z" fill="#0A2750"/>
<path d="M1526.15 340C1526.14 352.658 1526.03 364.818 1526.19 376.974C1526.25 381.266 1524.61 382.937 1520.32 382.892C1507.17 382.752 1494.01 382.778 1480.85 382.882C1477.08 382.912 1475.21 381.449 1475.37 377.607C1475.42 376.443 1475.35 375.275 1475.35 374.11C1475.34 298.828 1475.34 223.547 1475.35 148.266C1475.35 139.374 1475.37 139.359 1484.23 139.349C1495.39 139.336 1506.55 139.331 1517.71 139.351C1526.09 139.365 1526.14 139.416 1526.14 147.633C1526.15 211.588 1526.15 275.544 1526.15 340Z" fill="#0A2750"/>
<path d="M325.973 120.153C314.658 120.148 303.836 120.035 293.018 120.191C288.933 120.25 287.304 118.602 287.336 114.6C287.428 103.281 287.424 91.9601 287.344 80.641C287.317 76.7707 289.129 75.3178 292.846 75.3377C305.996 75.4078 319.148 75.4295 332.298 75.3198C336.492 75.2848 338.284 76.8504 338.203 81.2159C338.008 91.6997 338.17 102.19 338.14 112.677C338.12 119.932 337.919 120.093 330.463 120.148C329.131 120.158 327.8 120.152 325.973 120.153Z" fill="#0A2750"/>
<path d="M1502 75.3402C1508.49 75.3487 1514.49 75.4353 1520.48 75.3362C1524.38 75.2717 1526.25 76.7048 1526.19 80.895C1526.02 92.2117 1526.05 103.533 1526.16 114.851C1526.2 118.705 1524.58 120.19 1520.78 120.162C1507.3 120.062 1493.82 120.078 1480.33 120.151C1476.98 120.169 1475.39 118.732 1475.4 115.415C1475.4 103.597 1475.41 91.7789 1475.39 79.9609C1475.39 76.4844 1477.37 75.352 1480.53 75.3646C1487.52 75.3925 1494.51 75.3521 1502 75.3402Z" fill="#0A2750"/>
</g>
<defs>
<clipPath id="clip0_365_1287">
<rect width="1546" height="410" fill="white"/>
</clipPath>
</defs>
</svg>
